<svg xmlns="http://www.w3.org/2000/svg" width="176" height="51"><path d="M42.285 27.984a9.022 9.022 0 01-1.581-.32 4.315 4.315 0 01-1.26-.628 2.022 2.022 0 01-.716-.915 1.47 1.47 0 01-.077-.548 1.718 1.718 0 01.044-.3 1.5 1.5 0 01.046-.153.879.879 0 01.11-.21 1.639 1.639 0 011.533-.8 11.174 11.174 0 011.735.339 2.651 2.651 0 00.813.052 1.311 1.311 0 00.672-.283 2.552 2.552 0 00.663-.93 6.871 6.871 0 00.458-1.5 15.363 15.363 0 00.246-2.027c.052-.838.058-1.676.036-2.513a43.402 43.402 0 00-.179-2.931c-.166.344-.342.682-.537 1.012a5.584 5.584 0 01-1.219 1.5 3.635 3.635 0 01-1.624.764 5.327 5.327 0 01-1.049.09 2.719 2.719 0 01-.87-.131 3.875 3.875 0 01-1.47-.982 8.417 8.417 0 01-1.214-1.6 15.813 15.813 0 01-.886-1.778h-.01a11.43 11.43 0 01-.721-3.372c-.014-.3-.052-1.2-.027-1.8a9.4 9.4 0 01.21-1.744 3.669 3.669 0 01.553-1.336 1.571 1.571 0 01.433-.418 1.184 1.184 0 01.258-.126.863.863 0 01.293-.057A1.95 1.95 0 0138 4.716a2.489 2.489 0 01.7.865 5.714 5.714 0 01.432 1.2c.116.457.2.913.271 1.386s.137.947.211 1.42a13 13 0 00.252 1.3 3.792 3.792 0 00.4 1.026 1.423 1.423 0 00.63.6 1.529 1.529 0 001.012.013 1.788 1.788 0 001.08-.869 3.216 3.216 0 00.338-1.4 7.907 7.907 0 00-.094-1.522c-.061-.418-.3-2.139-.3-2.3v-.7a3.019 3.019 0 01.365-1.465 1.365 1.365 0 01.535-.5 2.036 2.036 0 01.491-.158 2.119 2.119 0 01.527-.05 1.468 1.468 0 01.525.117 1.836 1.836 0 01.525.366 3.5 3.5 0 01.526.691 7.38 7.38 0 01.531 1.089 16.488 16.488 0 01.54 1.566c.206.7.384 1.4.546 2.117.208.911.391 1.828.558 2.747.023.128.057.257.069.39s.028.264.041.393c.025.253.05.507.071.76q.065.713.115 1.426c.057.829.1 1.654.112 2.491.013.685.008 1.37-.023 2.054a19.668 19.668 0 01-.142 1.675c-.059.455-.17.978-.242 1.355C48.183 24.927 46.634 28 42.779 28q-.241 0-.494-.016zM5.3 23.711a4.6 4.6 0 01-1.313-.329A5.724 5.724 0 011.84 21.8a7.52 7.52 0 01-1.365-2.449A9 9 0 01.1 17.9a7.373 7.373 0 01-.1-1.424 4.831 4.831 0 01.252-1.465A2.93 2.93 0 01.937 13.9a1.828 1.828 0 011.11-.477 1.452 1.452 0 011.115.267 2.712 2.712 0 01.743 1.083 6.657 6.657 0 01.23.677c.069.245.122.494.179.742s.112.484.175.725.12.461.2.685a3.231 3.231 0 00.267.574.783.783 0 00.405.356.9.9 0 00.556-.021.972.972 0 00.439-.3 1.717 1.717 0 00.279-.546 3.422 3.422 0 00.158-.675 7.422 7.422 0 00.016-1.59c-.035-.433-.08-.865-.149-1.294-.082-.5-.186-1-.312-1.495s-.282-.971-.448-1.461a58.426 58.426 0 00-1.136-2.906A14.213 14.213 0 014.189 6.8a3.933 3.933 0 01-.2-1.43 1.887 1.887 0 01.439-1.1 1.757 1.757 0 01.972-.526 2.008 2.008 0 011.26.078 3.656 3.656 0 011.067.837A9.3 9.3 0 019.3 7.069a16.968 16.968 0 011.033 2.889 22.892 22.892 0 01.538 2.625v.009l.082.59c.057.393.088.789.122 1.183a26.949 26.949 0 01.12 3.166 11.811 11.811 0 01-.149 1.541 7.477 7.477 0 01-.361 1.418 5.01 5.01 0 01-1.525 2.188 4.385 4.385 0 01-1.074.628 6.093 6.093 0 01-1.308.352 5.854 5.854 0 01-.942.076q-.268.001-.536-.023zM16.811 22.2a4.11 4.11 0 01-1.26-.48 6.579 6.579 0 01-2-1.822 9.369 9.369 0 01-1.307-2.559 10.974 10.974 0 01-.573-2.971 12.2 12.2 0 01.211-3.038 8.073 8.073 0 01.977-2.624 5.307 5.307 0 011.772-1.828 4.546 4.546 0 011.17-.475 5.118 5.118 0 011.382-.169 3.9 3.9 0 011.3.243 4.808 4.808 0 011.147.647 6.774 6.774 0 011.77 2.02 10.318 10.318 0 011.085 2.722 11.985 11.985 0 01.34 2.967 12.315 12.315 0 01-.345 3.036 7.031 7.031 0 01-1.131 2.477 5.482 5.482 0 01-.893.945 4.176 4.176 0 01-1.063.627 4.962 4.962 0 01-1.181.308 4.213 4.213 0 01-.635.048 4.263 4.263 0 01-.766-.074zM27 20.781a2.013 2.013 0 01-.985-.766 6.161 6.161 0 01-.713-1.181 18.206 18.206 0 01-1.002-2.782 35.7 35.7 0 01-.693-2.952c-.151-.769-.3-1.541-.387-2.318a27.691 27.691 0 01-.21-2.862c-.01-.52-.01-1.048.001-1.561s.033-1.047.086-1.568a11.571 11.571 0 01.231-1.416 6.024 6.024 0 01.45-1.3 2.26 2.26 0 01.743-.934 1.475 1.475 0 011.142-.21 1.045 1.045 0 01.483.311 2.274 2.274 0 01.353.508 5.106 5.106 0 01.436 1.4c.054.3.107.6.15.9l.006.043c.073.519.136 1.047.184 1.562s.082 1.047.118 1.583c.071 1.059.2 2.114.355 3.165s.348 2.094.563 3.141.4 2.071.554 3.111c.073.486.139.969.17 1.465a3.934 3.934 0 01-.139 1.466 1.815 1.815 0 01-.725.986 1.687 1.687 0 01-.572.209 1.288 1.288 0 01-.6 0zm6.2-.871a2.028 2.028 0 01-.987-.766 6 6 0 01-.709-1.181 18.142 18.142 0 01-1.006-2.81c-.28-.972-.5-1.962-.693-2.952-.154-.769-.3-1.542-.389-2.318a31.849 31.849 0 01-.221-2.862c-.013-.519-.014-1.047 0-1.56s.033-1.047.086-1.568a11.047 11.047 0 01.23-1.416 5.8 5.8 0 01.45-1.3 2.234 2.234 0 01.743-.934 1.478 1.478 0 011.14-.21 1.055 1.055 0 01.485.311 2.373 2.373 0 01.372.532 5.1 5.1 0 01.435 1.4c.059.312.113.628.157.938l.038.277-.016-.117c-.018-.136-.034-.272-.014-.158q.111.778.184 1.562c.049.527.082 1.047.115 1.583.072 1.059.2 2.114.357 3.165s.348 2.094.563 3.141.387 2.065.545 3.111c.073.486.139.969.167 1.465a3.825 3.825 0 01-.139 1.466 1.817 1.817 0 01-.722.988 1.726 1.726 0 01-.571.209 1.288 1.288 0 01-.6 0zm.15-16.332zM23.056 30.66A1.79 1.79 0 0121 28.83 1.79 1.79 0 0123.056 27h10.888A1.79 1.79 0 0136 28.83a1.79 1.79 0 01-2.056 1.83H30.67v11.933A2.13 2.13 0 0128.513 45a2.146 2.146 0 01-2.183-2.407V30.66zM34 38.545C34 34.544 36.975 32 40.781 32a5.88 5.88 0 016.091 4.737 4.193 4.193 0 01.128.933c0 1.374-.84 1.939-2.142 1.939h-6.893a2.864 2.864 0 003 2.307 3.813 3.813 0 002.395-.716 2.025 2.025 0 011.31-.532 1.538 1.538 0 011.136.422 1.454 1.454 0 01.45 1.1 1.728 1.728 0 01-.729 1.375A7.238 7.238 0 0140.907 45C37.126 45 34 42.669 34 38.545zm15-.045c0-3.973 3.091-6.5 6.987-6.5a6.846 6.846 0 012.765.54 1.779 1.779 0 011.206 1.619 1.623 1.623 0 01-1.675 1.741 2.491 2.491 0 01-1.106-.294 2.43 2.43 0 00-1.106-.245 2.96 2.96 0 00-2.89 3.139 2.932 2.932 0 002.932 3.115 2.412 2.412 0 001.106-.221 2.491 2.491 0 011.105-.294A1.623 1.623 0 0160 42.842a1.862 1.862 0 01-1.206 1.618A6.644 6.644 0 0156 45c-3.934 0-7-2.453-7-6.5zm13.008-10.255A1.959 1.959 0 0164.011 26a1.962 1.962 0 012 2.245v5.864h.049a3.961 3.961 0 013.495-1.886c3.3 0 4.445 2.547 4.445 5v5.535A1.966 1.966 0 0171.965 45c-.692 0-2-.318-2-2.245V38.14c0-1.372-.342-2.572-1.783-2.572-1.392 0-2.174 1.151-2.174 2.6v4.58A1.959 1.959 0 0164 44.99a1.964 1.964 0 01-2-2.245zM77.016 34.3c0-1.893 1.291-2.192 1.924-2.192a1.87 1.87 0 011.949 1.969h.049A4.127 4.127 0 0184.567 32C87.831 32 89 34.592 89 37.084v5.632C89 44.684 87.66 45 86.97 45s-2-.324-2-2.284v-4.735c0-1.371-.365-2.617-1.8-2.617s-2.143 1.246-2.143 2.667v4.685C81.027 44.684 79.687 45 79 45s-2-.324-2-2.284zM91 38.455C91 34.462 94.19 32 97.988 32S105 34.454 105 38.455 101.81 45 97.988 45C94.19 45 91 42.447 91 38.455zm16-10.18c0-1.959 1.344-2.275 2-2.275s2 .316 2 2.275v14.448c0 1.959-1.344 2.277-2 2.277s-2-.318-2-2.277zm7 10.18c0-3.993 3.19-6.455 6.988-6.455S128 34.454 128 38.455 124.81 45 120.988 45C117.19 45 114 42.447 114 38.455zm16.62 11.307a2.013 2.013 0 01-1.038-1.651 1.707 1.707 0 011.718-1.794 2.49 2.49 0 011.4.483 5.574 5.574 0 002.886.842 3.151 3.151 0 003.342-3.487v-.758h-.08a4.745 4.745 0 01-3.822 1.668C131.2 45.063 129 42.081 129 38.594S131.2 32 135 32a4.734 4.734 0 014.025 1.971h.05a1.893 1.893 0 011.95-1.871A1.941 1.941 0 01143 34.325v9.424c0 4.926-2.936 7.251-7.417 7.251a9.622 9.622 0 01-4.963-1.238zm14.496-7.062v-8.388a2.122 2.122 0 012.275-2.3 2.128 2.128 0 012.276 2.3V42.7a2.123 2.123 0 01-2.276 2.3 2.128 2.128 0 01-2.275-2.3zM145 28.2a2.4 2.4 0 012.536-2.2A2.386 2.386 0 01150 28.262a2.431 2.431 0 01-2.609 2.26A2.37 2.37 0 01145 28.2zm7 10.345c0-4.001 2.975-6.545 6.782-6.545a5.881 5.881 0 016.092 4.737 4.244 4.244 0 01.126.933c0 1.374-.84 1.939-2.143 1.939h-6.891a2.864 2.864 0 003 2.307 3.812 3.812 0 002.395-.716 2.029 2.029 0 011.311-.532 1.538 1.538 0 011.136.422 1.454 1.454 0 01.453 1.1 1.733 1.733 0 01-.732 1.375A7.241 7.241 0 01158.908 45c-3.782 0-6.908-2.331-6.908-6.455zm14 3.994a1.536 1.536 0 01.436-1.114 1.51 1.51 0 011.1-.456 2.061 2.061 0 011.216.442 3.427 3.427 0 001.995.687c.657 0 1.435-.27 1.435-1.055s-.754-.981-2.408-1.374-3.536-1.275-3.536-3.581c0-2.919 2.724-4.088 5.035-4.088a7.511 7.511 0 013.284.711 1.659 1.659 0 011.013 1.472 1.462 1.462 0 01-.421 1.1 1.437 1.437 0 01-1.087.417 2.1 2.1 0 01-1.013-.34 3.052 3.052 0 00-1.622-.466c-.754 0-1.508.27-1.508.981s.657.858 2.214 1.2c1.848.411 3.867 1.376 3.867 3.755 0 3.091-2.7 4.17-5.181 4.17a7.7 7.7 0 01-3.892-.957 1.783 1.783 0 01-.927-1.504z" fill="#fff"/></svg>