<svg width="176" height="51" xmlns="http://www.w3.org/2000/svg"><path d="M10.867 12.593l.082.59c.057.394.088.79.122 1.183.102 1.052.142 2.109.12 3.166a11.848 11.848 0 01-.15 1.54 7.506 7.506 0 01-.36 1.418 5.008 5.008 0 01-1.525 2.188 4.35 4.35 0 01-1.074.628c-.421.166-.86.284-1.308.352a5.79 5.79 0 01-1.47.052 4.594 4.594 0 01-1.313-.328 5.733 5.733 0 01-2.15-1.58 7.53 7.53 0 01-1.366-2.45 8.98 8.98 0 01-.372-1.448 7.391 7.391 0 01-.1-1.428c.008-.498.093-.992.252-1.465a2.93 2.93 0 01.682-1.114 1.83 1.83 0 011.11-.477 1.45 1.45 0 011.114.268c.334.294.59.666.744 1.082.089.221.166.447.23.676.07.245.123.494.18.744.056.249.11.483.174.724.063.24.12.46.2.685.069.2.158.391.266.573a.783.783 0 00.405.356.904.904 0 00.557-.02.968.968 0 00.439-.296c.125-.164.22-.349.28-.546.074-.22.127-.445.157-.674a7.424 7.424 0 00.017-1.588c-.036-.433-.08-.864-.15-1.293a17.168 17.168 0 00-.313-1.495 21.27 21.27 0 00-.445-1.466 59.019 59.019 0 00-1.136-2.906 14.32 14.32 0 01-.578-1.447 3.937 3.937 0 01-.197-1.43c.024-.405.178-.79.439-1.101.26-.274.602-.457.974-.522.418-.11.86-.083 1.26.078.406.21.768.494 1.068.837a9.308 9.308 0 011.564 2.41c.431.93.777 1.898 1.034 2.89.23.864.41 1.74.537 2.625v.009zm7.351 9.63a4.206 4.206 0 01-1.407-.022 4.09 4.09 0 01-1.26-.48 6.575 6.575 0 01-1.995-1.821 9.359 9.359 0 01-1.307-2.559 10.95 10.95 0 01-.573-2.97 12.186 12.186 0 01.21-3.039c.17-.924.5-1.812.977-2.623a5.3 5.3 0 011.772-1.828c.366-.213.76-.373 1.17-.475.45-.12.916-.177 1.382-.17.445.006.885.088 1.302.243.41.162.796.38 1.147.647a6.77 6.77 0 011.768 2.018c.49.851.856 1.768 1.086 2.722.237.971.351 1.968.34 2.967a12.316 12.316 0 01-.344 3.036 7.029 7.029 0 01-1.132 2.477 5.431 5.431 0 01-.893.944c-.32.26-.679.473-1.062.628a5 5 0 01-1.18.308v-.002zM16.805 10.4c-.42.059-.63.453-.765.804-.167.453-.27.926-.304 1.407a8.931 8.931 0 00-.02 1.495c.04.461.123.918.249 1.363a8.9 8.9 0 00.504 1.407c.179.42.427.807.735 1.146.14.164.33.281.54.335.185.033.376 0 .54-.095a1.06 1.06 0 00.388-.433c.1-.184.178-.38.233-.582.116-.469.172-.95.168-1.432a11.399 11.399 0 00-.092-1.514 8.847 8.847 0 00-.303-1.415 7.841 7.841 0 00-.542-1.37 3.293 3.293 0 00-.542-.77.936.936 0 00-.79-.337c-.26.03.263-.044 0-.009zm10.291-6.308c.074.52.137 1.047.185 1.562.048.515.082 1.047.117 1.583.072 1.06.196 2.114.355 3.166a63.2 63.2 0 00.563 3.14c.215 1.047.397 2.07.555 3.111.073.486.138.97.17 1.466.047.493 0 .99-.139 1.466a1.808 1.808 0 01-.724.986c-.176.104-.37.175-.572.21a1.304 1.304 0 01-.602 0 2.015 2.015 0 01-.985-.767 6.135 6.135 0 01-.712-1.181c-.41-.899-.747-1.83-1.006-2.783a37.394 37.394 0 01-.694-2.952 29.96 29.96 0 01-.386-2.318 27.775 27.775 0 01-.21-2.862 27.588 27.588 0 010-1.56 22.59 22.59 0 01.086-1.568c.048-.476.125-.949.231-1.415.1-.448.251-.884.45-1.298a2.27 2.27 0 01.743-.934 1.474 1.474 0 011.143-.21c.186.057.354.164.483.31.14.153.259.325.353.51.212.443.36.915.436 1.4.057.312.112.628.156.938.126.936-.038-.279 0 0h.004zm6.213-.873c.074.52.135 1.04.184 1.562.049.527.082 1.047.116 1.583a37 37 0 00.357 3.165c.162 1.051.349 2.094.563 3.141a59.54 59.54 0 01.544 3.111c.073.486.138.97.168 1.466.049.493.002.99-.139 1.466a1.821 1.821 0 01-.722.988c-.177.103-.37.174-.572.21a1.304 1.304 0 01-.602 0 2.022 2.022 0 01-.987-.767 6.02 6.02 0 01-.71-1.181 18.178 18.178 0 01-1.006-2.81 35.62 35.62 0 01-.693-2.952 29.97 29.97 0 01-.389-2.318 31.83 31.83 0 01-.22-2.862 29.71 29.71 0 010-1.56c.014-.513.033-1.047.086-1.568.046-.476.123-.949.23-1.415.099-.45.25-.885.45-1.298.159-.373.416-.696.744-.934a1.474 1.474 0 011.14-.21c.188.057.356.164.485.31.148.16.273.339.372.532.212.444.358.915.435 1.4.058.313.113.629.157.939.13.938-.042-.277.009.002zm2.648 9.974c.258.611.554 1.205.886 1.778.34.579.747 1.115 1.214 1.598.408.436.91.772 1.47.982.281.09.575.135.87.131.352.005.704-.025 1.05-.09a3.64 3.64 0 001.624-.764c.49-.425.902-.931 1.218-1.497.195-.329.372-.668.537-1.011.09.973.154 1.951.179 2.931a27.72 27.72 0 01-.036 2.513 15.3 15.3 0 01-.245 2.026 6.833 6.833 0 01-.458 1.504 2.548 2.548 0 01-.664.93 1.302 1.302 0 01-.672.282 2.648 2.648 0 01-.813-.052c-.577-.113-1.145-.319-1.735-.34a1.64 1.64 0 00-1.533.8.851.851 0 00-.11.21 1.758 1.758 0 00-.09.448c-.008.186.018.372.078.548.144.368.393.687.716.915.383.277.809.49 1.26.628a8.986 8.986 0 001.582.32c4.217.275 5.88-2.966 6.3-5.192.072-.377.184-.9.242-1.354a19.58 19.58 0 00.143-1.675c.032-.685.036-1.37.023-2.054a48.981 48.981 0 00-.11-2.492 69.029 69.029 0 00-.116-1.426c-.021-.253-.047-.507-.072-.76-.012-.13-.027-.262-.04-.393-.012-.132-.046-.262-.07-.39a64.25 64.25 0 00-.558-2.747c-.161-.712-.34-1.42-.546-2.117a16.407 16.407 0 00-.54-1.566 7.459 7.459 0 00-.53-1.089 3.452 3.452 0 00-.526-.69 1.836 1.836 0 00-.525-.367 1.461 1.461 0 00-.525-.117 2.126 2.126 0 00-.527.05c-.17.032-.335.086-.492.16-.22.115-.406.289-.535.502-.244.45-.37.954-.366 1.465v.7c0 .163.242 1.884.303 2.303.08.503.112 1.013.094 1.522a3.21 3.21 0 01-.338 1.403 1.788 1.788 0 01-1.08.869 1.527 1.527 0 01-1.012-.013 1.428 1.428 0 01-.63-.6 3.833 3.833 0 01-.395-1.027c-.106-.428-.19-.861-.252-1.298-.073-.473-.136-.946-.21-1.42a14.97 14.97 0 00-.27-1.385 5.723 5.723 0 00-.433-1.204 2.487 2.487 0 00-.696-.865 1.947 1.947 0 00-1.05-.375c-.1.001-.2.02-.294.057a1.18 1.18 0 00-.258.125 1.57 1.57 0 00-.433.419 3.666 3.666 0 00-.552 1.336 9.394 9.394 0 00-.21 1.744 23.92 23.92 0 00.027 1.798 11.43 11.43 0 00.72 3.373h.011zM23.056 30.66c-1.777 0-2.056-1.228-2.056-1.83 0-.602.28-1.83 2.056-1.83h10.888C35.721 27 36 28.228 36 28.83c0 .602-.28 1.83-2.056 1.83H30.67v11.933c0 2.056-1.48 2.407-2.157 2.407s-2.183-.351-2.183-2.407V30.66h-3.274zM44.67 40.672c.423-.02.835.134 1.136.423.301.289.464.687.45 1.099a1.729 1.729 0 01-.728 1.374C44.444 44.428 42.93 45 40.906 45 37.126 45 34 42.668 34 38.545c0-4 2.974-6.545 6.78-6.545 3.151 0 5.42 1.792 6.092 4.737.077.305.12.618.128.933 0 1.374-.84 1.939-2.143 1.939h-6.891c.126 1.35 1.512 2.307 3 2.307a3.816 3.816 0 002.394-.712c.63-.444.907-.532 1.31-.532zm-1.386-3.593c0-1.277-.84-2.332-2.47-2.332-1.588 0-2.747 1.08-2.848 2.332h5.318zM49 38.5c0-3.973 3.091-6.5 6.987-6.5a6.859 6.859 0 012.765.54c.955.442 1.206 1.104 1.206 1.62 0 .931-.578 1.74-1.675 1.74a2.49 2.49 0 01-1.106-.294 2.43 2.43 0 00-1.106-.245c-1.734 0-2.89 1.447-2.89 3.14 0 1.692 1.13 3.114 2.932 3.114.381.015.76-.06 1.106-.22a2.49 2.49 0 011.105-.295c1.106 0 1.676.818 1.676 1.742 0 .515-.302 1.177-1.206 1.618-.754.368-1.785.54-2.79.54C52.066 45 49 42.547 49 38.5zm13.008-10.255c0-1.935 1.343-2.245 2.003-2.245.66 0 2.003.316 2.003 2.245v5.864h.048c.538-.98 1.808-1.886 3.493-1.886 3.297 0 4.445 2.547 4.445 4.997v5.535C74 44.69 72.657 45 71.965 45c-.692 0-2.003-.318-2.003-2.245V38.14c0-1.371-.342-2.572-1.783-2.572-1.392 0-2.174 1.152-2.174 2.597v4.58c0 1.935-1.343 2.245-2.002 2.245-.66 0-2.003-.319-2.003-2.245l.008-14.5zm15.008 6.056c0-1.894 1.291-2.193 1.924-2.193.634 0 1.876.299 1.949 1.969h.049C81.498 32.98 82.886 32 84.567 32 87.831 32 89 34.592 89 37.084v5.632C89 44.684 87.66 45 86.97 45c-.69 0-1.997-.324-1.997-2.284V37.98c0-1.37-.365-2.617-1.802-2.617-1.438 0-2.144 1.246-2.144 2.667v4.685c0 1.968-1.34 2.284-2.03 2.284-.69 0-1.997-.324-1.997-2.284l.016-8.415zM97.987 45C94.19 45 91 42.447 91 38.455S94.19 32 97.987 32c3.798 0 7.013 2.454 7.013 6.455 0 4-3.19 6.545-7.013 6.545zm0-9.67c-1.949 0-2.953 1.546-2.953 3.117 0 1.57 1.038 3.166 2.987 3.166 1.95 0 2.987-1.595 2.987-3.166s-1.071-3.117-3.02-3.117zM107 28.275c0-1.959 1.344-2.275 2-2.275.656 0 2 .316 2 2.275v14.448c0 1.959-1.344 2.277-2 2.277-.656 0-2-.318-2-2.277V28.275zM120.987 45C117.19 45 114 42.447 114 38.455S117.19 32 120.987 32c3.798 0 7.013 2.454 7.013 6.455 0 4-3.19 6.545-7.013 6.545zm0-9.67c-1.949 0-2.953 1.546-2.953 3.117 0 1.57 1.038 3.166 2.987 3.166 1.95 0 2.987-1.595 2.987-3.166s-1.071-3.117-3.02-3.117zm8.595 12.781c0-.96.659-1.794 1.722-1.794.354 0 .734.076 1.392.48a5.57 5.57 0 002.886.843c2.152 0 3.342-1.39 3.342-3.487v-.758h-.076c-.785 1.01-2.152 1.667-3.823 1.667-3.822 0-6.025-2.98-6.025-6.468 0-3.486 2.203-6.594 6-6.594 1.57 0 3.14.632 4.025 1.97h.05c.128-1.54 1.317-1.869 1.95-1.869s1.975.303 1.975 2.223v9.425c0 4.927-2.937 7.251-7.418 7.251-1.544 0-3.586-.328-4.962-1.238-.766-.514-1.038-1.12-1.038-1.65zm6.405-12.734c-1.873 0-2.953 1.44-2.953 3.184 0 1.667 1.088 3.209 2.953 3.209 1.865 0 3.064-1.491 3.064-3.21 0-1.717-1.197-3.183-3.07-3.183h.006zm11.404-4.856c-1.365-.053-2.43-1.089-2.39-2.325.04-1.236 1.169-2.214 2.535-2.196 1.367.018 2.464 1.025 2.464 2.262 0 1.28-1.166 2.26-2.609 2.26zm-2.275 3.792c0-1.984 1.526-2.302 2.275-2.302.75 0 2.276.326 2.276 2.302v8.385c0 1.984-1.526 2.302-2.276 2.302-.749 0-2.275-.326-2.275-2.302v-8.385zm17.556 6.359a1.54 1.54 0 011.136.423c.302.289.466.687.453 1.099a1.733 1.733 0 01-.732 1.374c-1.084.86-2.596 1.432-4.621 1.432-3.782 0-6.908-2.332-6.908-6.455 0-4 2.975-6.545 6.782-6.545 3.15 0 5.42 1.792 6.092 4.737.076.306.118.618.126.933 0 1.374-.84 1.939-2.143 1.939h-6.89c.125 1.35 1.512 2.307 3 2.307a3.817 3.817 0 002.394-.712c.63-.444.908-.532 1.311-.532zm-1.386-3.583c0-1.277-.84-2.332-2.47-2.332-1.59 0-2.749 1.08-2.85 2.332h5.32zm4.714 5.45a1.536 1.536 0 01.436-1.114 1.51 1.51 0 011.097-.456c.442.013.868.167 1.216.442a3.427 3.427 0 001.995.686c.657 0 1.435-.27 1.435-1.054 0-.785-.754-.981-2.408-1.374-1.654-.392-3.533-1.275-3.533-3.58 0-2.92 2.724-4.089 5.035-4.089 1.046 0 2.481.245 3.284.711.802.466 1.013.981 1.013 1.472.019.409-.134.807-.42 1.096-.288.29-.682.444-1.088.425a2.098 2.098 0 01-1.013-.344 3.052 3.052 0 00-1.622-.466c-.754 0-1.508.27-1.508.981 0 .712.657.859 2.213 1.202 1.85.41 3.868 1.374 3.868 3.753 0 3.09-2.7 4.17-5.181 4.17-1.387 0-2.968-.343-3.892-.957-.708-.474-.926-1.013-.926-1.504z" fill="#FFF"/></svg>