<?xml version="1.0" encoding="UTF-8"?>
<svg width="95px" height="39px" viewBox="0 0 95 39" version="1.1" xmlns="http://www.w3.org/2000/svg" xmlns:xlink="http://www.w3.org/1999/xlink">
    <!-- Generator: sketchtool 63.1 (101010) - https://sketch.com -->
    <title>532122C8-B313-4A73-9994-03C8CD1C1A10</title>
    <desc>Created with sketchtool.</desc>
    <g id="HomePage" stroke="none" stroke-width="1" fill="none" fill-rule="evenodd">
        <g id="Desktop-HD" transform="translate(-261.000000, -21.000000)" fill="#FFFFFF" fill-rule="nonzero">
            <g id="Logo_Blue" transform="translate(260.000000, 19.000000)">
                <g id="Group-2">
                    <path d="M24.5626328,40.1662957 C25.1828364,40.1662957 26.4691846,39.8659017 26.4691846,38.0173231 L26.4691846,26.0015619 C26.4691846,23.7370531 24.9071903,23.3442301 24.1261932,23.3442301 C23.3911371,23.3442301 22.3574644,23.5521952 21.4616147,25.6318462 L17.2580126,35.4986347 L17.1661305,35.4986347 L12.9625283,25.6318462 C12.0666787,23.5521952 11.0100355,23.3442301 10.2749794,23.3442301 C9.49398227,23.3442301 7.88604701,23.7370531 7.88604701,26.0015619 L7.88604701,38.0866448 C7.88604701,39.8659017 9.12645421,40.1662957 9.72368731,40.1662957 C10.3209204,40.1662957 11.5613276,39.8659017 11.5613276,38.0866448 L11.5153866,30.4843651 L11.5842981,30.4843651 L14.8690802,38.3408243 C15.5352248,39.9352234 16.3391924,40.1662957 17.051278,40.1662957 C17.7633636,40.1662957 18.5443608,39.9583306 19.2334759,38.3408243 L22.6560809,30.4843651 L22.7249925,30.4843651 L22.6560809,38.0173231 C22.6331104,39.8659017 23.9424292,40.1662957 24.5626328,40.1662957 Z M35.38174,40.3049391 C38.8502861,40.3049391 41.7445696,37.9017869 41.7445696,34.1353079 C41.7445696,30.368829 38.8502861,28.0581057 35.38174,28.0581057 C31.9361645,28.0581057 29.041881,30.368829 29.041881,34.1353079 C29.041881,37.9017869 31.9361645,40.3049391 35.38174,40.3049391 Z M35.4047105,37.116141 C33.6359818,37.116141 32.6941911,35.6141708 32.6941911,34.1353079 C32.6941911,32.656445 33.6130112,31.2006893 35.38174,31.2006893 C37.1504688,31.2006893 38.11523,32.656445 38.11523,34.1353079 C38.11523,35.6141708 37.1734393,37.116141 35.4047105,37.116141 Z M53.528438,40.1662957 C54.1716121,40.1662957 55.4349898,39.8659017 55.4349898,38.0404303 L55.4349898,32.8181956 C55.4349898,30.5074723 54.3324057,28.1043201 51.2543582,28.1043201 C49.6693934,28.1043201 48.3600747,29.0055022 47.8317531,30.0222205 L47.7858121,30.0222205 C47.7169006,28.4740358 46.5454049,28.1967491 45.9481718,28.1967491 C45.3509387,28.1967491 44.133502,28.4740358 44.133502,30.2301856 L44.133502,38.0404303 C44.133502,39.8659017 45.3968797,40.1662957 46.0170833,40.1662957 C46.6602574,40.1662957 47.9236351,39.8659017 47.9236351,38.0404303 L47.9236351,33.6962705 C47.9236351,32.3791582 48.6127502,31.2237966 49.9450394,31.2237966 C51.3002992,31.2237966 51.6448567,32.3791582 51.6448567,33.650056 L51.6448567,38.0404303 C51.6448567,39.8659017 52.9082344,40.1662957 53.528438,40.1662957 Z M60.2128546,26.8334223 C61.4073208,26.8334223 62.372082,25.9322402 62.372082,24.7537713 C62.372082,23.5984097 61.4073208,22.6741204 60.2128546,22.6741204 C58.9954179,22.6741204 58.0536273,23.6446242 58.0536273,24.7537713 C58.0536273,25.8860258 58.9954179,26.8334223 60.2128546,26.8334223 Z M60.2128546,40.1662957 C60.8330582,40.1662957 62.0964359,39.8659017 62.0964359,38.0404303 L62.0964359,30.3226145 C62.0964359,28.4971431 60.8330582,28.1967491 60.2128546,28.1967491 C59.592651,28.1967491 58.3292733,28.4971431 58.3292733,30.3226145 L58.3292733,38.0404303 C58.3292733,39.8659017 59.592651,40.1662957 60.2128546,40.1662957 Z M69.5618497,40.2125102 C70.9171094,40.2125102 71.9967231,39.79658 71.9967231,38.5950039 C71.9967231,37.9480014 71.537313,37.2316771 70.5955223,37.2316771 L70.2969058,37.2316771 L70.2969058,37.2316771 C69.4699677,37.2316771 69.1713511,36.723318 69.1713511,35.6603853 L69.1713511,31.270011 L70.5036403,31.270011 C71.8359295,31.270011 72.0886051,30.2995073 72.0886051,29.8373626 C72.0886051,29.3983252 71.8359295,28.4278214 70.5036403,28.4278214 L69.1713511,28.4278214 L69.1713511,27.2493525 C69.1713511,25.4700956 67.9079734,25.1697015 67.3337108,25.1697015 C66.7364777,25.1697015 65.4731,25.4700956 65.4731,27.2493525 L65.4731,28.4278214 L65.0136899,28.4278214 C63.6814007,28.4278214 63.4287252,29.3983252 63.4287252,29.8373626 C63.4287252,30.2995073 63.6814007,31.270011 65.0136899,31.270011 L65.4960705,31.270011 L65.4960705,36.12253 C65.4960705,38.5718967 66.5067727,40.2125102 69.5618497,40.2125102 Z M79.3932253,40.3049391 C82.8617714,40.3049391 85.7560548,37.9017869 85.7560548,34.1353079 C85.7560548,30.368829 82.8617714,28.0581057 79.3932253,28.0581057 C75.9476497,28.0581057 73.0533662,30.368829 73.0533662,34.1353079 C73.0533662,37.9017869 75.9476497,40.3049391 79.3932253,40.3049391 Z M79.4161958,37.116141 C77.647467,37.116141 76.7056763,35.6141708 76.7056763,34.1353079 C76.7056763,32.656445 77.6244965,31.2006893 79.3932253,31.2006893 C81.1619541,31.2006893 82.1267152,32.656445 82.1267152,34.1353079 C82.1267152,35.6141708 81.1849246,37.116141 79.4161958,37.116141 Z M90.0285685,40.1662957 C90.6487721,40.1662957 91.9121499,39.8659017 91.9121499,38.0404303 L91.9121499,34.0197718 C91.9121499,32.7026595 92.647206,31.6859412 93.9565247,31.5935123 C95.4036664,31.5010834 95.886047,30.6461157 95.886047,29.7911481 C95.886047,28.8437516 95.2658434,28.1274274 94.2092002,28.1274274 C93.014734,28.1274274 92.2567074,29.1210384 91.8202678,30.0915422 L91.7743268,30.0915422 C91.7743268,28.4971431 90.5339196,28.1967491 89.959657,28.1967491 C89.3624239,28.1967491 88.1449872,28.4740358 88.1449872,30.2301856 L88.1449872,38.0404303 C88.1449872,39.8659017 89.4083649,40.1662957 90.0285685,40.1662957 Z" id="Monitor"></path>
                    <path d="M4.94943073,17.0039828 C5.55777022,17.0039828 6.07485878,16.8999495 6.50069643,16.6918829 C6.92653407,16.4838163 7.28545437,16.2023144 7.57745732,15.8473773 C7.86946028,15.4924402 8.10062928,15.0854864 8.27096434,14.626516 C8.4412994,14.1675456 8.56905069,13.6871565 8.65421822,13.1853489 C8.73938575,12.6835412 8.8002197,12.175614 8.83672006,11.6615671 C8.87322043,11.1475202 8.89755401,10.6640714 8.9097208,10.2112206 L8.9097208,10.2112206 L8.9097208,9.75225015 C8.9097208,9.29939934 8.88538722,8.80677109 8.83672006,8.27436541 C8.78805291,7.74195972 8.70896877,7.21261384 8.59946766,6.68632776 C8.48996656,6.16004168 8.34092338,5.65211442 8.15233814,5.16254597 C7.9637529,4.67297753 7.72954219,4.23848553 7.44970603,3.85906999 C7.26720418,3.61428576 7.08470234,3.42763779 6.90220049,3.29912608 C6.71969864,3.17061436 6.47027945,3.1063585 6.15394292,3.1063585 C5.72810528,3.1063585 5.40568535,3.23793002 5.18668313,3.50107306 C4.96768091,3.7642161 4.85817981,4.10385421 4.85817981,4.51998739 C4.85817981,4.87492451 4.90684697,5.22986164 5.00418128,5.58479876 C5.1015156,5.93973588 5.19276653,6.2885534 5.27793405,6.63125131 C5.44826911,7.30440793 5.59122889,7.96838513 5.70681339,8.62318293 C5.8223979,9.27798072 5.88019015,9.94807753 5.88019015,10.6334734 C5.88019015,10.8048223 5.87106506,11.0434869 5.85281487,11.3494672 C5.83456469,11.6554475 5.79198092,11.958368 5.72506358,12.2582286 C5.65814623,12.5580893 5.55168682,12.8181725 5.40568535,13.0384783 C5.25968387,13.2587841 5.05893184,13.368937 4.80342925,13.368937 C4.58442704,13.368937 4.42930047,13.2710234 4.33804954,13.075196 C4.24679862,12.8793686 4.18292297,12.6376442 4.1464226,12.3500227 C4.10992223,12.0624013 4.07950526,11.7503014 4.05517168,11.4137231 C4.0308381,11.0771448 3.97912924,10.7650449 3.90004511,10.4774234 C3.82096098,10.189802 3.69320968,9.94807753 3.51679123,9.75225015 C3.34037278,9.55642278 3.0757451,9.45850909 2.7229082,9.45850909 C2.39440488,9.45850909 2.1236938,9.55336297 1.91077498,9.74307075 C1.69785616,9.93277852 1.52447941,10.1653235 1.39064472,10.4407058 C1.25681003,10.716088 1.16251741,11.0128889 1.10776686,11.3311084 C1.0530163,11.6493279 1.02564103,11.9369493 1.02564103,12.1939728 C1.02564103,12.7814549 1.10472516,13.3597576 1.26289343,13.928881 C1.42106169,14.4980043 1.66439749,15.0120511 1.99290081,15.4710216 C2.32140414,15.929992 2.73203329,16.3002281 3.22478828,16.58173 C3.71754326,16.8632318 4.29242408,17.0039828 4.94943073,17.0039828 Z M13.472267,17.1141357 C14.1414404,17.1141357 14.7193629,16.9489063 15.2060345,16.6184476 C15.6927061,16.2879889 16.0942102,15.8596165 16.4105467,15.3333304 C16.7268832,14.8070444 16.9671773,14.2134426 17.131429,13.5525252 C17.2956807,12.8916078 17.3960567,12.23681 17.432557,11.5881318 C17.4690574,11.0006497 17.4264736,10.3764499 17.3048058,9.71553252 C17.1831379,9.05461512 16.9763024,8.44571436 16.6842995,7.88883026 C16.3922965,7.33194615 16.0060009,6.86685613 15.5254127,6.49356019 C15.0448245,6.12026425 14.4638603,5.93361628 13.7825201,5.93361628 C13.0768463,5.93361628 12.4685068,6.11414464 11.9575016,6.47520137 C11.4464965,6.8362581 11.0267422,7.30134812 10.6982389,7.87047144 C10.3697356,8.43959476 10.1263998,9.06991413 9.96823151,9.76142956 C9.81006325,10.452945 9.73097911,11.1230418 9.73097911,11.77172 C9.73097911,12.3836806 9.81006325,13.0048205 9.96823151,13.6351399 C10.1263998,14.2654593 10.3636522,14.8376424 10.6799887,15.3516893 C10.9963253,15.8657361 11.3856625,16.2879889 11.8480005,16.6184476 C12.3103385,16.9489063 12.8517607,17.1141357 13.472267,17.1141357 Z M13.6912692,14.4337484 C13.5087673,14.4337484 13.3475574,14.3388945 13.2076393,14.1491868 C13.0677212,13.959479 12.949095,13.7208144 12.8517607,13.4331929 C12.7544264,13.1455714 12.6783839,12.8304118 12.6236334,12.4877138 C12.5688828,12.1450159 12.5415076,11.8267964 12.5415076,11.5330554 C12.5415076,11.3005104 12.5658411,11.0281879 12.6145083,10.716088 C12.6631755,10.4039881 12.7331345,10.1071873 12.8243854,9.82568542 C12.9156363,9.54418357 13.0312208,9.30551895 13.1711389,9.10969157 C13.311057,8.91386419 13.472267,8.8159505 13.6547688,8.8159505 C13.8372707,8.8159505 13.9984806,8.90774459 14.1383987,9.09133275 C14.2783168,9.27492092 14.3939013,9.50746593 14.4851522,9.78896779 C14.5764031,10.0704696 14.6463622,10.3733901 14.6950293,10.6977292 C14.7436965,11.0220683 14.7680301,11.3188692 14.7680301,11.5881318 C14.7680301,11.8818729 14.7497799,12.1970326 14.7132795,12.5336109 C14.6767792,12.8701892 14.6159452,13.1792293 14.5307777,13.4607311 C14.4456102,13.742233 14.3330673,13.974778 14.1931493,14.1583662 C14.0532312,14.3419543 13.8859378,14.4337484 13.6912692,14.4337484 Z M20.4255873,17.0223416 C20.7297571,17.0223416 20.9730929,16.9427867 21.1555947,16.783677 C21.3380966,16.6245672 21.4749729,16.4287398 21.5662239,16.1961948 C21.6574748,15.9636498 21.715267,15.7096862 21.7396006,15.4343039 C21.7639342,15.1589217 21.776101,14.9110777 21.776101,14.6907719 C21.776101,13.8095487 21.7487257,12.9344451 21.6939752,12.0654611 C21.6392246,11.1964771 21.6118493,10.3274931 21.6118493,9.45850909 C21.6118493,8.78535247 21.6392246,8.11525566 21.6939752,7.44821866 C21.7487257,6.78118165 21.776101,6.11720444 21.776101,5.45628704 C21.776101,5.26045966 21.7700176,5.02485485 21.7578508,4.7494726 C21.745684,4.47409035 21.7091837,4.21094731 21.6483497,3.96004348 C21.5875158,3.70913965 21.4871397,3.49495346 21.3472217,3.31748489 C21.2073036,3.14001633 21.0035098,3.05128205 20.7358405,3.05128205 C20.4073371,3.05128205 20.1244593,3.18897318 19.8872069,3.46435543 C19.6499545,3.73973768 19.4461608,4.0946748 19.2758257,4.5291668 C19.1054906,4.96365879 18.9686143,5.44710763 18.8651965,5.97951332 C18.7617788,6.511919 18.679653,7.03514528 18.618819,7.54919215 C18.5579851,8.06323902 18.518443,8.54056825 18.5001928,8.98117985 C18.4819427,9.42179145 18.4728176,9.75836976 18.4728176,9.99091477 C18.4728176,10.1989814 18.4819427,10.5202607 18.5001928,10.9547526 C18.518443,11.3892446 18.54886,11.8665739 18.5914438,12.3867404 C18.6340275,12.9069068 18.7009449,13.4423723 18.7921958,13.9931368 C18.8834467,14.5439013 18.9990312,15.0426492 19.1389493,15.4893804 C19.2788674,15.9361116 19.4552858,16.3032879 19.6682047,16.5909094 C19.8811235,16.8785308 20.1335844,17.0223416 20.4255873,17.0223416 Z M25.2253859,17.0223416 C25.5295556,17.0223416 25.7728914,16.9427867 25.9553933,16.783677 C26.1378951,16.6245672 26.2747715,16.4287398 26.3660224,16.1961948 C26.4572734,15.9636498 26.5150656,15.7096862 26.5393992,15.4343039 C26.5637328,15.1589217 26.5758996,14.9110777 26.5758996,14.6907719 C26.5758996,13.8095487 26.5485243,12.9344451 26.4937737,12.0654611 C26.4390232,11.1964771 26.4116479,10.3274931 26.4116479,9.45850909 C26.4116479,8.78535247 26.4390232,8.11525566 26.4937737,7.44821866 C26.5485243,6.78118165 26.5758996,6.11720444 26.5758996,5.45628704 C26.5758996,5.26045966 26.5698162,5.02485485 26.5576494,4.7494726 C26.5454826,4.47409035 26.5089822,4.21094731 26.4481483,3.96004348 C26.3873143,3.70913965 26.2869383,3.49495346 26.1470202,3.31748489 C26.0071021,3.14001633 25.8033084,3.05128205 25.535639,3.05128205 C25.2071357,3.05128205 24.9242579,3.18897318 24.6870055,3.46435543 C24.449753,3.73973768 24.2459593,4.0946748 24.0756243,4.5291668 C23.9052892,4.96365879 23.7684128,5.44710763 23.6649951,5.97951332 C23.5615774,6.511919 23.4794516,7.03514528 23.4186176,7.54919215 C23.3577837,8.06323902 23.3182416,8.54056825 23.2999914,8.98117985 C23.2817412,9.42179145 23.2726161,9.75836976 23.2726161,9.99091477 C23.2726161,10.1989814 23.2817412,10.5202607 23.2999914,10.9547526 C23.3182416,11.3892446 23.3486586,11.8665739 23.3912423,12.3867404 C23.4338261,12.9069068 23.5007434,13.4423723 23.5919944,13.9931368 C23.6832453,14.5439013 23.7988298,15.0426492 23.9387479,15.4893804 C24.078666,15.9361116 24.2550844,16.3032879 24.4680032,16.5909094 C24.6809221,16.8785308 24.9333829,17.0223416 25.2253859,17.0223416 Z M31.9232037,21.9241456 C32.6045439,21.9241456 33.1885498,21.7650359 33.6752214,21.4468164 C34.161893,21.1285969 34.5725221,20.7063441 34.9071089,20.1800581 C35.2416956,19.653772 35.5124067,19.0571104 35.7192421,18.3900734 C35.9260775,17.7230364 36.0812041,17.0437602 36.1846218,16.3522448 C36.2880395,15.6607293 36.3579985,14.9875727 36.3944989,14.3327749 C36.4309993,13.6779771 36.4492495,13.0935548 36.4492495,12.5795079 C36.4492495,12.3592021 36.4401244,12.0562817 36.4218742,11.6707465 C36.403624,11.2852114 36.3701653,10.8629586 36.3214982,10.4039881 C36.272831,9.94501773 36.202872,9.48298751 36.1116211,9.01789749 C36.0203701,8.55280746 35.8987022,8.12749487 35.7466174,7.74195972 C35.5945325,7.35642457 35.4089889,7.04432469 35.1899867,6.80566007 C34.9709845,6.56699545 34.7093985,6.44766314 34.4052288,6.44766314 C34.161893,6.44766314 33.9641827,6.51497881 33.8120978,6.64961013 C33.6600129,6.78424145 33.538345,6.95865021 33.4470941,7.17283641 C33.3558432,7.3870226 33.2889258,7.62568722 33.2463421,7.88883026 C33.2037583,8.1519733 33.1794247,8.41817614 33.1733413,8.68743878 C33.1672579,8.95670143 33.1642162,9.21372486 33.1642162,9.45850909 L33.1642162,9.45850909 L33.1642162,10.0827089 C33.1642162,10.3274931 33.1520494,10.5875763 33.1277159,10.8629586 C33.1033823,11.1383408 33.04559,11.3953643 32.9543391,11.6340289 C32.8630882,11.8726935 32.7231701,12.0715807 32.5345849,12.2306904 C32.3459996,12.3898002 32.0935387,12.469355 31.7772022,12.469355 C31.497366,12.469355 31.2814055,12.4203982 31.1293206,12.3224845 C30.9772358,12.2245708 30.864693,12.0929993 30.7916922,11.9277699 C30.7186915,11.7625406 30.6761077,11.5758926 30.6639409,11.367826 C30.6517741,11.1597594 30.6456907,10.9516928 30.6456907,10.7436263 C30.6456907,10.5967557 30.6487324,10.3856293 30.6548158,10.1102471 C30.6608992,9.83486483 30.6578575,9.53194435 30.6456907,9.20148565 C30.633524,8.87102695 30.6061487,8.53750845 30.5635649,8.20093014 C30.5209811,7.86435184 30.4540638,7.55531175 30.3628129,7.2738099 C30.271562,6.99230804 30.1529358,6.75670323 30.0069343,6.56699545 C29.8609328,6.37728768 29.6723476,6.27631419 29.4411786,6.26407498 C29.0883417,6.23959656 28.8024221,6.37116808 28.5834199,6.65878954 C28.3644177,6.946411 28.1940826,7.29828832 28.0724147,7.7144215 C27.9507468,8.13055468 27.8625376,8.55586726 27.807787,8.99035926 C27.7530365,9.42485126 27.7195778,9.77672858 27.707411,10.0459912 C27.6830774,10.4009283 27.6830774,10.7895233 27.707411,11.2117761 C27.7317446,11.6340289 27.7834534,12.0654611 27.8625376,12.5060727 C27.9416217,12.9466843 28.0602479,13.3719969 28.2184162,13.7820104 C28.3765845,14.192024 28.5773365,14.5561405 28.8206723,14.87436 C29.0640081,15.1925795 29.3590527,15.4496029 29.7058062,15.6454303 C30.0525597,15.8412577 30.4571055,15.9391714 30.9194435,15.9391714 C31.527783,15.9391714 32.0418299,15.7647626 32.4615841,15.4159451 C32.8813384,15.0671276 33.3041343,14.5683797 33.729972,13.9197016 C33.7178052,14.1400074 33.699555,14.4276288 33.6752214,14.7825659 C33.6508878,15.1375031 33.6113458,15.5169186 33.5565952,15.9208126 C33.5018446,16.3247065 33.4258022,16.7316603 33.3284679,17.1416739 C33.2311336,17.5516875 33.1033823,17.9249834 32.945214,18.2615617 C32.7870457,18.59814 32.5954188,18.8704625 32.3703332,19.078529 C32.1452476,19.2865956 31.8806199,19.3906289 31.5764502,19.3906289 C31.4061151,19.3906289 31.2449051,19.3661505 31.0928203,19.3171937 C30.9407354,19.2682368 30.7856088,19.2131604 30.6274406,19.1519643 C30.4814391,19.0907683 30.3384793,19.0387516 30.1985612,18.9959144 C30.0586431,18.9530771 29.9156834,18.9316585 29.7696819,18.9316585 C29.6358472,18.9316585 29.5080959,18.9591967 29.386428,19.0142732 C29.2647601,19.0693496 29.1522173,19.1427849 29.0487996,19.234579 C28.9453819,19.3263731 28.863256,19.4334662 28.8024221,19.5558583 C28.7415881,19.6782504 28.7111712,19.8006425 28.7111712,19.9230346 C28.7111712,20.2412541 28.823714,20.522756 29.0487996,20.7675402 C29.2738852,21.0123244 29.5506797,21.220391 29.879183,21.39174 C30.2076863,21.5630889 30.5574815,21.6946604 30.9285686,21.7864545 C31.2996557,21.8782486 31.6312007,21.9241456 31.9232037,21.9241456 Z" id="Jolly" transform="translate(18.737445, 12.487714) rotate(-7.000000) translate(-18.737445, -12.487714) "></path>
                </g>
            </g>
        </g>
    </g>
</svg>